Coordinates
version=1
nRows=8
nColumns=63
inDegrees=yes

Units are S.I. units (second, meters, Newtons, ...)
If the header above contains a line with 'inDegrees', this indicates whether rotational values are in degrees (yes) or radians (no).

endheader
time	pelvis_tilt	pelvis_list	pelvis_rotation	pelvis_tx	pelvis_ty	pelvis_tz	hip_flexion_r	hip_adduction_r	hip_rotation_r	knee_angle_r	knee_angle_r_beta	ankle_angle_r	subtalar_angle_r	mtp_angle_r	hip_flexion_l	hip_adduction_l	hip_rotation_l	knee_angle_l	knee_angle_l_beta	ankle_angle_l	subtalar_angle_l	mtp_angle_l	L5_S1_Flex_Ext	L5_S1_Lat_Bending	L5_S1_axial_rotation	L4_L5_Flex_Ext	L4_L5_Lat_Bending	L4_L5_axial_rotation	L3_L4_Flex_Ext	L3_L4_Lat_Bending	L3_L4_axial_rotation	L2_L3_Flex_Ext	L2_L3_Lat_Bending	L2_L3_axial_rotation	L1_L2_Flex_Ext	L1_L2_Lat_Bending	L1_L2_axial_rotation	L1_T12_Flex_Ext	L1_T12_Lat_Bending	L1_T12_axial_rotation	Abs_r3	Abs_r2	Abs_r1	Abs_t1	Abs_t2	neck_flexion	neck_bending	neck_rotation	arm_flex_r	arm_add_r	arm_rot_r	elbow_flex_r	pro_sup_r	wrist_flex_r	wrist_dev_r	arm_flex_l	arm_add_l	arm_rot_l	elbow_flex_l	pro_sup_l	wrist_flex_l	wrist_dev_l
4.101695	3.682800	-11.435094	92.317313	0.193653	1.017867	0.579854	10.602719	3.074721	-15.592631	11.671620	0.203708	24.752114	12.460261	0.000000	10.462240	-1.742465	-2.251358	11.061823	0.193065	25.920755	-5.373778	0.000000	-0.497925	0.580179	1.485185	-0.924696	0.771639	1.578009	-0.818041	1.410648	1.578009	-0.569078	1.410648	1.299536	-0.462373	1.183102	1.206712	-0.284514	0.898698	1.113888	-3.556628	6.563106	8.260151	0.000000	0.000000	-1.902649	-4.244975	-2.779820	47.927203	-16.173623	34.742196	71.635943	89.489366	33.118622	34.809290	25.972111	8.307630	162.539820	0.125354	0.880508	69.386925	-24.408355
4.118644	3.628795	-11.283092	91.966227	0.194347	1.017572	0.579670	10.403419	3.082601	-15.344576	11.702778	0.204252	24.812992	12.610262	0.000000	10.230868	-1.791494	-2.931993	11.065718	0.193133	26.097688	-4.914478	0.000000	-0.491605	0.581399	1.632266	-0.912960	0.773261	1.734283	-0.807658	1.413614	1.734283	-0.561855	1.413614	1.428233	-0.456504	1.185589	1.326216	-0.280903	0.900587	1.224200	-3.511486	6.576905	9.078176	0.000000	0.000000	-1.821481	-4.452838	-2.928772	45.254458	-16.566849	31.908205	74.090143	89.422782	30.977594	34.171911	26.032825	8.500218	162.999257	0.120562	0.874529	69.413386	-24.411694
4.135593	3.592154	-11.104044	91.602540	0.194912	1.017380	0.579598	10.164143	3.104331	-15.052572	11.714908	0.204464	24.826743	12.700739	0.000000	9.973005	-1.865236	-3.768007	11.065424	0.193128	26.281178	-4.234278	0.000000	-0.488510	0.586663	1.784517	-0.907212	0.780262	1.896049	-0.802573	1.426412	1.896049	-0.558318	1.426412	1.561452	-0.453631	1.196323	1.449920	-0.279135	0.908741	1.338388	-3.489379	6.636449	9.924948	0.000000	0.000000	-1.713700	-4.667552	-3.112251	42.280689	-16.949110	28.835029	76.906272	89.361133	28.185859	33.132508	26.156615	8.747672	163.288132	0.112978	0.860629	69.449068	-24.420856
4.152542	3.588196	-10.905423	91.253146	0.195231	1.017311	0.579704	9.904400	3.139978	-14.749165	11.721890	0.204586	24.796862	12.735795	0.000000	9.706390	-1.954508	-4.602471	11.060791	0.193047	26.421751	-3.531113	0.000000	-0.488576	0.599059	1.939603	-0.907334	0.796749	2.060828	-0.802681	1.456552	2.060828	-0.558393	1.456552	1.697152	-0.453692	1.221601	1.575927	-0.279172	0.927943	1.454702	-3.489849	6.776676	10.787489	0.000000	0.000000	-1.601445	-4.958512	-3.433556	39.126787	-17.386960	25.652488	80.041697	89.357590	24.952631	31.688970	26.342445	9.077764	163.196242	0.099296	0.839807	69.491465	-24.434925
4.169492	4.064133	-10.280124	90.995927	0.193347	1.019394	0.581139	9.215406	3.520624	-14.861236	11.608657	0.202609	24.179711	13.168667	0.000000	9.064238	-2.390469	-5.129760	10.998729	0.191964	26.242678	-3.177690	0.000000	-0.526076	0.697469	2.438682	-0.976975	0.927634	2.591100	-0.864290	1.695827	2.591100	-0.601252	1.695827	2.133847	-0.488514	1.422280	1.981429	-0.300600	1.080380	1.829011	-3.757707	7.889913	13.563218	0.000000	0.000000	-2.079469	-5.520553	-5.822176	34.939180	-19.142824	20.530761	84.118325	89.316158	21.409252	29.983949	29.619230	11.647091	169.761995	-5.896870	-4.123708	73.384827	-26.161234
4.186441	4.343911	-9.789651	90.757939	0.192179	1.020740	0.582370	8.673362	3.745457	-14.818124	11.538404	0.201383	23.762860	13.374785	0.000000	8.568611	-2.673416	-5.751375	10.971906	0.191496	26.143743	-2.654900	0.000000	-0.554846	0.764645	2.777964	-1.030405	1.016978	2.951587	-0.911557	1.859159	2.951587	-0.634134	1.859159	2.430719	-0.515230	1.559265	2.257096	-0.317039	1.184436	2.083473	-3.963212	8.649822	15.450205	0.000000	0.000000	-2.240095	-5.845521	-7.478365	31.177265	-20.315737	16.297664	88.070847	89.232126	17.674579	27.982721	31.401254	13.269805	171.765709	-8.769089	-6.301961	75.158837	-26.947344
4.203390	4.444503	-9.426844	90.551091	0.191639	1.021419	0.583379	8.265744	3.824204	-14.666745	11.498584	0.200688	23.516386	13.398800	0.000000	8.210390	-2.809906	-6.417115	10.976215	0.191571	26.108682	-2.020663	0.000000	-0.574864	0.803835	2.964555	-1.067580	1.069100	3.149840	-0.944444	1.954444	3.149840	-0.657012	1.954444	2.593986	-0.533819	1.639180	2.408701	-0.328477	1.245140	2.223417	-4.106196	9.093139	16.487967	0.000000	0.000000	-2.140645	-5.916254	-8.443079	27.913223	-20.933543	12.969588	91.824479	89.083369	14.014313	25.814625	31.787813	14.020778	169.657222	-8.760905	-5.955157	75.047641	-26.962520
4.220339	4.388052	-9.190391	90.397281	0.191675	1.021505	0.584132	7.983304	3.777785	-14.413486	11.470720	0.200202	23.401466	13.235795	0.000000	7.983788	-2.818488	-7.107008	11.001487	0.192012	26.130829	-1.251902	0.000000	-0.584517	0.817309	3.011020	-1.085507	1.087021	3.199208	-0.960304	1.987206	3.199208	-0.668045	1.987206	2.634642	-0.542783	1.666657	2.446454	-0.333993	1.266012	2.258265	-4.175150	9.245567	16.746389	0.000000	0.000000	-1.829876	-5.755232	-8.853622	25.129065	-21.056255	10.493137	95.397650	88.911187	10.348007	23.628510	30.892549	13.979703	163.983145	-6.111286	-3.364039	73.289505	-26.349395
